<svg width="18" height="24" viewBox="0 0 18 24" fill="none" xmlns="http://www.w3.org/2000/svg">
<path d="M0 24V0H9.65363C11.3743 0 12.7654 0.344444 13.8268 1.03333C14.8883 1.71111 15.6648 2.56667 16.1564 3.6C16.648 4.63333 16.8939 5.67778 16.8939 6.73333C16.8939 8.07778 16.5866 9.19444 15.9721 10.0833C15.3687 10.9722 14.5363 11.5667 13.4749 11.8667V11.0333C14.9832 11.3444 16.1117 12.0389 16.8603 13.1167C17.6201 14.1944 18 15.4 18 16.7333C18 18.1667 17.7318 19.4278 17.1955 20.5167C16.6704 21.6056 15.8659 22.4611 14.7821 23.0833C13.6983 23.6944 12.3352 24 10.6927 24H0ZM4.6257 19.7333H10.2235C10.838 19.7333 11.3855 19.6056 11.8659 19.35C12.3464 19.0833 12.7207 18.7167 12.9888 18.25C13.2682 17.7722 13.4078 17.2111 13.4078 16.5667C13.4078 16 13.2905 15.4944 13.0559 15.05C12.8212 14.6056 12.4637 14.2556 11.9832 14C11.514 13.7333 10.9274 13.6 10.2235 13.6H4.6257V19.7333ZM4.6257 9.36667H9.58659C10.1006 9.36667 10.5587 9.27778 10.9609 9.1C11.3631 8.92222 11.6816 8.65 11.9162 8.28333C12.1508 7.90556 12.2682 7.42222 12.2682 6.83333C12.2682 6.1 12.0391 5.48333 11.581 4.98333C11.1229 4.48333 10.4581 4.23333 9.58659 4.23333H4.6257V9.36667Z" fill="#14B8A6"/>
</svg>
